<svg version="1.1" viewBox="0 0 32 32" xmlns="http://www.w3.org/2000/svg"><g transform="translate(-.27501 .27501)" stroke="#000"><g id="content" transform="matrix(1.0028 0 0 1.0028 -.04537 -.043836)"><path d="m15.124 30.867c-2.8775-0.21885-5.6579-1.2716-7.9841-3.0232-2.3235-1.7495-4.1436-4.2083-5.1322-6.9331-1.2999-3.5826-1.2004-7.5799 0.27554-11.074 1.2989-3.0747 3.5725-5.6384 6.4791-7.3057 3.7549-2.1538 8.3075-2.5819 12.441-1.1698 4.6078 1.574 8.2114 5.313 9.615 9.9762 0.45069 1.4972 0.63408 2.7854 0.63106 4.4327-0.0024 1.3465-0.12384 2.3673-0.42848 3.6036-1.1938 4.8451-4.7342 8.813-9.4419 10.582-1.9852 0.74599-4.3108 1.0742-6.4554 0.91111zm0.42844-3.6256c0.26374-0.06643 0.4463-0.2128 0.59081-0.47371 0.09858-0.17796 0.10385-0.2081 0.10038-0.5734-0.0045-0.46719-0.04927-0.62949-0.5277-1.9103-0.57424-1.5374-1.6773-4.6289-3.6083-10.112-0.62454-1.7736-1.2567-3.4138-1.3443-3.5921-0.59754-1.2162-1.5715-1.8054-2.6991-1.6792-1.573 0.17599-2.8324 2.0319-3.3139 4.8835-0.22472 1.3309-0.20491 2.8495 0.054667 4.1909 0.42654 2.2043 1.4872 4.223 3.0824 5.867 1.3598 1.4014 2.949 2.3901 4.8547 3.0204 1.2398 0.41006 2.1828 0.53732 2.8103 0.37927zm6.1412-1.2906c0.61698-0.20038 1.1717-0.51691 1.8446-1.0526 2.138-1.702 3.6388-4.1278 4.1862-6.7658 0.15501-0.74714 0.21678-1.2944 0.23806-2.1091 0.0515-1.9725-0.34643-3.7744-1.2188-5.5189-0.32708-0.65412-0.55625-0.98334-0.97532-1.4012-0.40521-0.40399-0.7051-0.6056-1.133-0.76166-0.23326-0.085087-0.29981-0.093226-0.7468-0.091345-0.43404 0.00179-0.5232 0.012825-0.77188 0.095227-0.68496 0.22698-1.2205 0.71373-1.6088 1.4622-0.50316 0.96991-1.9606 4.5934-3.116 7.7473-0.90366 2.4666-1.2508 3.4881-1.2508 3.6808 0 0.51113 0.465 1.9939 0.92896 2.9622 0.36773 0.76747 0.83152 1.2485 1.5516 1.6094 0.4332 0.21708 0.68352 0.26672 1.27 0.25184 0.4358-0.01106 0.55012-0.0265 0.802-0.1083zm-5.245-10.861c0.27199-0.1594 0.42086-0.36708 0.67254-0.93827 0.96565-2.1915 1.6887-4.0902 2.6354-6.9202 0.58995-1.7637 0.60873-1.8501 0.46623-2.1444-0.14845-0.30665-0.55871-0.57047-1.1012-0.70813-0.92558-0.23487-1.7942-0.33545-2.8742-0.33284-1.1632 0.00284-2.1528 0.13732-3.1689 0.43069-0.48328 0.13953-0.71444 0.26024-0.9526 0.49743-0.21885 0.21796-0.3125 0.42664-0.3125 0.69631 0 0.35231 1.913 5.9976 2.7263 8.0453 0.39726 1.0003 0.50809 1.1754 0.85633 1.3533 0.2362 0.12066 0.30676 0.13507 0.60933 0.12444 0.23298-0.0081 0.31218-0.02669 0.44344-0.10362z" stroke="none"/></g><circle cx="16.275" cy="15.725" r="0" fill="none" stroke-width=".072218"/></g></svg>
